HIERARCHY
ROOT mixamorig_Hips
{
	OFFSET -0.000329 0.934763 0.013172
	CHANNELS 6 Xposition Yposition Zposition Xrotation Yrotation Zrotation
	JOINT mixamorig_Spine
	{
		OFFSET -0.000531 0.096594 0.001533
		CHANNELS 3 Xrotation Yrotation Zrotation
		JOINT mixamorig_Spine1
		{
			OFFSET -0.000284 0.099406 -0.006202
			CHANNELS 3 Xrotation Yrotation Zrotation
			JOINT mixamorig_Spine2
			{
				OFFSET -0.000665 0.100821 -0.005436
				CHANNELS 3 Xrotation Yrotation Zrotation
				JOINT mixamorig_Neck
				{
					OFFSET -0.003569 0.181005 -0.017910
					CHANNELS 3 Xrotation Yrotation Zrotation
					JOINT mixamorig_Head
					{
						OFFSET -0.000567 0.090675 0.004608
						CHANNELS 3 Xrotation Yrotation Zrotation
						End Site
						{
							OFFSET -0.027755 0.065308 0.087730
						}
						End Site
						{
							OFFSET 0.030266 0.066100 0.089151
						}
						End Site
						{
							OFFSET 0.000889 0.164225 0.030118
						}
					}
				}
				JOINT mixamorig_LeftShoulder
				{
					OFFSET 0.040153 0.123825 -0.018173
					CHANNELS 3 Xrotation Yrotation Zrotation
					JOINT mixamorig_LeftArm
					{
						OFFSET 0.096846 -0.006770 -0.015789
						CHANNELS 3 Xrotation Yrotation Zrotation
						JOINT mixamorig_LeftForeArm
						{
							OFFSET 0.260836 0.000158 -0.012098
							CHANNELS 3 Xrotation Yrotation Zrotation
							JOINT mixamorig_LeftHand
							{
								OFFSET 0.260721 0.009445 0.003518
								CHANNELS 3 Xrotation Yrotation Zrotation
								JOINT mixamorig_LeftHandThumb1
								{
									OFFSET 0.020007 -0.013915 0.025888
									CHANNELS 3 Xrotation Yrotation Zrotation
									JOINT mixamorig_LeftHandThumb2
									{
										OFFSET 0.024753 -0.016879 0.017465
										CHANNELS 3 Xrotation Yrotation Zrotation
										JOINT mixamorig_LeftHandThumb3
										{
											OFFSET 0.022267 -0.009924 0.010944
											CHANNELS 3 Xrotation Yrotation Zrotation
											End Site
											{
												OFFSET 0.012616 -0.008684 0.013475
											}
										}
									}
								}
								JOINT mixamorig_LeftHandIndex1
								{
									OFFSET 0.075712 -0.004005 0.022878
									CHANNELS 3 Xrotation Yrotation Zrotation
									JOINT mixamorig_LeftHandIndex2
									{
										OFFSET 0.032025 0.000805 0.000360
										CHANNELS 3 Xrotation Yrotation Zrotation
										JOINT mixamorig_LeftHandIndex3
										{
											OFFSET 0.021636 -0.000922 0.001709
											CHANNELS 3 Xrotation Yrotation Zrotation
											End Site
											{
												OFFSET 0.022272 0.000343 -0.000989
											}
										}
									}
								}
								JOINT mixamorig_LeftHandMiddle1
								{
									OFFSET 0.077672 0.000197 0.003119
									CHANNELS 3 Xrotation Yrotation Zrotation
									JOINT mixamorig_LeftHandMiddle2
									{
										OFFSET 0.028817 -0.000836 0.000007
										CHANNELS 3 Xrotation Yrotation Zrotation
										JOINT mixamorig_LeftHandMiddle3
										{
											OFFSET 0.027734 -0.001265 -0.001079
											CHANNELS 3 Xrotation Yrotation Zrotation
											End Site
											{
												OFFSET 0.021544 0.002739 0.001746
											}
										}
									}
								}
								JOINT mixamorig_LeftHandRing1
								{
									OFFSET 0.072647 0.000468 -0.012545
									CHANNELS 3 Xrotation Yrotation Zrotation
									JOINT mixamorig_LeftHandRing2
									{
										OFFSET 0.023428 0.001297 -0.001540
										CHANNELS 3 Xrotation Yrotation Zrotation
										JOINT mixamorig_LeftHandRing3
										{
											OFFSET 0.025300 -0.000202 0.000300
											CHANNELS 3 Xrotation Yrotation Zrotation
											End Site
											{
												OFFSET 0.021378 -0.000642 0.000026
											}
										}
									}
								}
								JOINT mixamorig_LeftHandPinky1
								{
									OFFSET 0.067362 -0.004561 -0.028241
									CHANNELS 3 Xrotation Yrotation Zrotation
									JOINT mixamorig_LeftHandPinky2
									{
										OFFSET 0.024539 0.000905 -0.001802
										CHANNELS 3 Xrotation Yrotation Zrotation
										JOINT mixamorig_LeftHandPinky3
										{
											OFFSET 0.016774 0.000497 -0.000418
											CHANNELS 3 Xrotation Yrotation Zrotation
											End Site
											{
												OFFSET 0.016253 0.001664 -0.000439
											}
										}
									}
								}
							}
						}
					}
				}
				JOINT mixamorig_RightShoulder
				{
					OFFSET -0.044710 0.123416 -0.018691
					CHANNELS 3 Xrotation Yrotation Zrotation
					JOINT mixamorig_RightArm
					{
						OFFSET -0.093285 -0.007451 -0.015294
						CHANNELS 3 Xrotation Yrotation Zrotation
						JOINT mixamorig_RightForeArm
						{
							OFFSET -0.260082 -0.000676 -0.016999
							CHANNELS 3 Xrotation Yrotation Zrotation
							JOINT mixamorig_RightHand
							{
								OFFSET -0.269354 0.006819 -0.001623
								CHANNELS 3 Xrotation Yrotation Zrotation
								JOINT mixamorig_RightHandPinky1
								{
									OFFSET -0.068944 -0.004710 -0.027276
									CHANNELS 3 Xrotation Yrotation Zrotation
									JOINT mixamorig_RightHandPinky2
									{
										OFFSET -0.028424 0.000709 -0.002294
										CHANNELS 3 Xrotation Yrotation Zrotation
										JOINT mixamorig_RightHandPinky3
										{
											OFFSET -0.014087 -0.000537 -0.000408
											CHANNELS 3 Xrotation Yrotation Zrotation
											End Site
											{
												OFFSET -0.016161 0.000319 -0.000701
											}
										}
									}
								}
								JOINT mixamorig_RightHandRing1
								{
									OFFSET -0.073644 -0.000271 -0.011566
									CHANNELS 3 Xrotation Yrotation Zrotation
									JOINT mixamorig_RightHandRing2
									{
										OFFSET -0.022262 0.002187 -0.001227
										CHANNELS 3 Xrotation Yrotation Zrotation
										JOINT mixamorig_RightHandRing3
										{
											OFFSET -0.024959 0.000014 0.001033
											CHANNELS 3 Xrotation Yrotation Zrotation
											End Site
											{
												OFFSET -0.020342 -0.002927 -0.000438
											}
										}
									}
								}
								JOINT mixamorig_RightHandMiddle1
								{
									OFFSET -0.078465 0.000178 0.003924
									CHANNELS 3 Xrotation Yrotation Zrotation
									JOINT mixamorig_RightHandMiddle2
									{
										OFFSET -0.030586 0.000877 -0.000514
										CHANNELS 3 Xrotation Yrotation Zrotation
										JOINT mixamorig_RightHandMiddle3
										{
											OFFSET -0.024860 -0.001171 -0.001812
											CHANNELS 3 Xrotation Yrotation Zrotation
											End Site
											{
												OFFSET -0.022346 -0.000216 0.001043
											}
										}
									}
								}
								JOINT mixamorig_RightHandIndex1
								{
									OFFSET -0.077138 -0.004903 0.023488
									CHANNELS 3 Xrotation Yrotation Zrotation
									JOINT mixamorig_RightHandIndex2
									{
										OFFSET -0.032982 0.000016 -0.000651
										CHANNELS 3 Xrotation Yrotation Zrotation
										JOINT mixamorig_RightHandIndex3
										{
											OFFSET -0.021521 -0.001038 0.000640
											CHANNELS 3 Xrotation Yrotation Zrotation
											End Site
											{
												OFFSET -0.019633 -0.001183 -0.002236
											}
										}
									}
								}
								JOINT mixamorig_RightHandThumb1
								{
									OFFSET -0.019217 -0.014120 0.025973
									CHANNELS 3 Xrotation Yrotation Zrotation
									JOINT mixamorig_RightHandThumb2
									{
										OFFSET -0.024531 -0.016682 0.017772
										CHANNELS 3 Xrotation Yrotation Zrotation
										JOINT mixamorig_RightHandThumb3
										{
											OFFSET -0.020595 -0.008213 0.010052
											CHANNELS 3 Xrotation Yrotation Zrotation
											End Site
											{
												OFFSET -0.018779 -0.008914 0.011284
											}
										}
									}
								}
							}
						}
					}
				}
			}
		}
	}
	JOINT mixamorig_LeftUpLeg
	{
		OFFSET 0.082644 -0.061097 -0.015299
		CHANNELS 3 Xrotation Yrotation Zrotation
		JOINT mixamorig_LeftLeg
		{
			OFFSET 0.011706 -0.407894 -0.000411
			CHANNELS 3 Xrotation Yrotation Zrotation
			JOINT mixamorig_LeftFoot
			{
				OFFSET -0.009807 -0.381384 -0.042699
				CHANNELS 3 Xrotation Yrotation Zrotation
				JOINT mixamorig_LeftToeBase
				{
					OFFSET -0.009374 -0.069665 0.102141
					CHANNELS 3 Xrotation Yrotation Zrotation
					End Site
					{
						OFFSET -0.003020 -0.006885 0.094051
					}
				}
			}
		}
	}
	JOINT mixamorig_RightUpLeg
	{
		OFFSET -0.081973 -0.063719 -0.012470
		CHANNELS 3 Xrotation Yrotation Zrotation
		JOINT mixamorig_RightLeg
		{
			OFFSET -0.006811 -0.412091 0.011100
			CHANNELS 3 Xrotation Yrotation Zrotation
			JOINT mixamorig_RightFoot
			{
				OFFSET 0.004573 -0.370721 -0.055504
				CHANNELS 3 Xrotation Yrotation Zrotation
				JOINT mixamorig_RightToeBase
				{
					OFFSET 0.011350 -0.073821 0.101054
					CHANNELS 3 Xrotation Yrotation Zrotation
					End Site
					{
						OFFSET 0.000203 -0.006417 0.095416
					}
				}
			}
		}
	}
}
MOTION
Frames: 6
Frame Time: 0.03333333333333333
0.050050 -0.037005 0.001488 2.456789 10.035080 -2.320798 0.608143 0.012122 0.335726 -0.058781 0.183458 3.186484 0.000000 -0.000000 0.000000 0.000000 0.000000 0.000000 0.000000 0.000000 0.000000 -0.000001 -0.000011 -0.000001 -6.073404 -15.136216 -75.357242 -0.234783 -4.071335 -5.961129 -0.000005 0.000003 0.000002 -0.000006 0.000001 0.000000 0.000003 -0.000005 -0.000005 0.000006 -0.000004 -0.000001 -0.000013 -0.000001 0.000002 -0.000019 0.000002 0.000002 -0.000005 0.000004 -0.000000 -0.000005 0.000001 -0.000000 -0.000001 0.000001 -0.000000 0.000005 -0.000000 -0.000001 0.000001 -0.000002 -0.000002 -0.000003 -0.000001 0.000001 0.000000 0.000001 -0.000001 -0.000005 0.000000 -0.000000 -0.000008 0.000001 -0.000001 0.000006 -0.000002 -0.000002 0.000001 0.000007 0.000004 -1.942668 -11.091226 76.878753 -0.500738 4.825105 7.146805 0.000003 -0.000001 -0.000002 -0.000003 0.000004 0.000000 0.000003 0.000001 -0.000001 -0.000011 0.000001 -0.000003 0.000001 0.000003 -0.000000 0.000006 -0.000002 -0.000004 -0.000010 -0.000003 -0.000000 -0.000012 0.000000 -0.000002 -0.000000 0.000001 -0.000004 0.000004 0.000001 -0.000002 0.000012 0.000001 -0.000001 -0.000006 -0.000000 -0.000000 0.000001 0.000003 -0.000001 -0.000004 0.000006 -0.000000 -0.000004 0.000006 -0.000006 -0.000004 0.000004 -0.000005 -20.932423 -0.861556 2.577376 16.978948 0.479730 4.911040 0.000004 -0.000011 -0.000001 0.000000 -0.000000 -0.000000 -6.730848 -0.185670 4.181936 5.534344 -0.083274 5.675148 0.000001 0.000003 -0.000001 0.000000 0.000000 -0.000000 
0.050064 -0.037014 0.001462 2.458652 10.008742 -2.308514 0.607954 0.014215 0.333822 -0.059833 0.187763 3.184634 -0.001121 0.004335 -0.001718 0.000921 0.003568 -0.004569 0.003610 0.003692 -0.003613 0.004853 -0.014533 -0.014375 -6.046671 -15.131869 -75.344734 -0.231111 -4.068179 -5.959086 -0.039267 -0.005775 0.030891 -0.000025 0.000039 0.000009 0.000002 -0.000005 -0.000004 0.000003 0.000017 0.000022 -0.000001 0.000014 0.000003 -0.000022 0.000002 0.000006 -0.000005 0.000003 -0.000000 0.000018 0.000002 -0.000013 -0.000032 0.000004 -0.000008 -0.000016 0.000005 -0.000006 -0.000026 0.000003 -0.000004 -0.000001 -0.000025 -0.000051 0.000000 0.000001 -0.000001 -0.000025 0.000033 -0.000012 -0.000012 -0.000007 0.000008 0.000002 -0.000001 -0.000001 0.000268 0.003466 -0.004192 -1.939086 -11.098324 76.851873 -0.505763 4.854403 7.166934 -0.001384 -0.023946 -0.003144 0.000004 0.000004 0.000006 -0.000033 -0.000005 0.000011 -0.000024 -0.000003 0.000001 0.000002 -0.000013 0.000000 0.000018 0.000023 0.000009 -0.000026 -0.000006 0.000004 -0.000008 -0.000000 -0.000023 -0.000011 -0.000019 -0.000050 0.000012 0.000000 0.000015 -0.000003 0.000008 -0.000013 -0.000002 0.000000 -0.000000 0.000001 0.000003 -0.000001 0.000004 0.000012 0.000001 0.000002 0.000002 0.000010 -0.000003 0.000010 -0.000005 -20.931420 -0.852478 2.568957 16.979078 0.479567 4.911124 -0.008027 0.028289 -0.005444 0.000000 -0.000000 -0.000000 -6.749954 -0.182762 4.160066 5.564857 -0.082105 5.688872 -0.013604 0.023726 -0.000617 0.000000 0.000000 -0.000000 
0.050078 -0.037021 0.001454 2.459770 9.989802 -2.303553 0.607415 0.015271 0.332440 -0.061260 0.189901 3.182918 -0.002607 0.006517 -0.003335 0.001449 0.007792 -0.009510 0.006823 0.008131 -0.008361 0.005880 -0.018276 -0.017271 -6.017563 -15.133834 -75.342753 -0.229976 -4.066456 -5.958057 -0.076989 -0.004223 0.061058 -0.000048 0.000051 0.000029 0.000002 -0.000005 -0.000004 0.000011 0.000036 0.000022 -0.000012 0.000004 0.000001 -0.000008 -0.000000 -0.000010 -0.000017 0.000006 -0.000000 0.000005 0.000000 0.000001 -0.000020 0.000003 -0.000006 -0.000021 0.000006 -0.000007 -0.000024 0.000003 -0.000004 0.000010 -0.000008 -0.000058 -0.000009 0.000004 -0.000002 -0.000034 0.000035 0.000008 -0.000016 -0.000024 0.000014 0.000004 -0.000001 -0.000001 0.000381 0.008390 -0.007686 -1.952636 -11.099322 76.838961 -0.504786 4.839916 7.157205 -0.006405 -0.029864 0.002548 0.000000 0.000003 0.000011 -0.000015 -0.000002 0.000008 -0.000016 -0.000001 -0.000001 0.000007 -0.000005 0.000008 0.000015 0.000030 -0.000009 -0.000016 -0.000004 0.000002 0.000001 -0.000003 -0.000006 -0.000022 -0.000025 -0.000051 0.000008 0.000001 0.000006 0.000007 0.000021 -0.000007 0.000001 0.000001 0.000009 0.000003 0.000003 -0.000001 0.000001 0.000016 0.000019 -0.000001 0.000011 0.000003 -0.000004 0.000007 -0.000005 -20.930621 -0.851544 2.565062 16.980084 0.479366 4.911283 -0.009881 0.048611 0.007157 0.000000 -0.000000 -0.000000 -6.760554 -0.185271 4.148601 5.582517 -0.081388 5.696824 -0.018196 0.043182 0.001162 0.000000 0.000000 -0.000000 
0.050098 -0.037028 0.001453 2.460859 9.978943 -2.301695 0.606272 0.015298 0.331156 -0.063769 0.189930 3.181226 -0.005174 0.006590 -0.004959 0.000876 0.012253 -0.014431 0.009697 0.013138 -0.014378 0.004527 -0.016145 -0.012989 -5.989803 -15.135918 -75.352023 -0.230716 -4.066024 -5.957924 -0.102283 0.006114 0.086495 -0.000051 0.000037 0.000022 0.000008 0.000004 -0.000008 0.000015 0.000046 0.000017 -0.000015 -0.000005 -0.000001 0.000001 -0.000001 -0.000035 -0.000021 0.000007 -0.000000 -0.000007 -0.000003 0.000019 -0.000005 0.000002 -0.000003 -0.000021 0.000006 -0.000007 -0.000016 0.000001 -0.000003 0.000012 -0.000001 -0.000056 -0.000018 0.000008 -0.000003 -0.000033 0.000030 0.000024 -0.000018 -0.000022 -0.000010 0.000006 -0.000002 -0.000001 0.000233 0.014150 -0.009720 -1.967713 -11.098435 76.828956 -0.501998 4.814336 7.139855 -0.016571 -0.035103 0.006061 -0.000000 0.000011 0.000008 -0.000010 -0.000004 0.000025 -0.000010 0.000001 -0.000003 0.000006 0.000003 0.000010 0.000009 0.000021 -0.000019 -0.000009 -0.000003 -0.000000 0.000001 -0.000003 0.000007 -0.000017 -0.000025 -0.000050 0.000004 0.000001 -0.000002 0.000017 0.000028 -0.000001 0.000003 0.000001 0.000012 0.000003 0.000003 -0.000001 -0.000001 0.000013 0.000032 0.000003 0.000017 -0.000008 -0.000004 -0.000007 -0.000006 -20.930380 -0.853719 2.561860 16.978469 0.478891 4.911015 -0.003147 0.055784 0.035021 0.000000 -0.000000 -0.000000 -6.769710 -0.191153 4.140315 5.598858 -0.080695 5.704157 -0.020790 0.057328 0.002593 0.000000 0.000000 -0.000000 
0.050124 -0.037037 0.001455 2.463173 9.974555 -2.300405 0.604215 0.014575 0.329579 -0.068146 0.188436 3.179254 -0.009613 0.005138 -0.006873 -0.001374 0.016415 -0.018816 0.012273 0.018400 -0.021763 0.002202 -0.012407 -0.005744 -5.965157 -15.134036 -75.370670 -0.232564 -4.066502 -5.958411 -0.112024 0.024029 0.106912 -0.000047 0.000009 -0.000002 0.000014 0.000019 -0.000010 0.000011 0.000036 0.000012 -0.000005 -0.000005 -0.000001 -0.000002 0.000002 -0.000054 -0.000013 0.000005 -0.000000 -0.000007 -0.000004 0.000028 0.000001 0.000002 -0.000008 -0.000021 0.000006 -0.000007 -0.000013 -0.000001 0.000003 0.000007 -0.000008 -0.000057 -0.000019 0.000009 -0.000004 -0.000031 0.000024 0.000021 -0.000017 -0.000003 -0.000040 0.000006 -0.000002 -0.000002 -0.000120 0.019424 -0.010173 -1.971264 -11.099948 76.813536 -0.500717 4.806531 7.134489 -0.033951 -0.053166 0.000430 0.000005 0.000026 0.000001 -0.000028 -0.000009 0.000045 -0.000016 -0.000000 -0.000002 0.000002 0.000002 0.000010 0.000010 0.000006 -0.000012 -0.000010 -0.000003 -0.000000 -0.000008 -0.000001 0.000009 -0.000006 -0.000018 -0.000057 0.000006 0.000001 0.000003 0.000014 0.000023 0.000001 0.000002 0.000000 0.000000 0.000001 0.000003 -0.000001 -0.000001 0.000011 0.000033 0.000011 0.000012 -0.000012 -0.000004 -0.000018 -0.000007 -20.931738 -0.855721 2.557513 16.973876 0.478149 4.910297 0.009307 0.050345 0.070047 0.000000 -0.000000 -0.000000 -6.782919 -0.199630 4.130463 5.621932 -0.079726 5.714458 -0.026581 0.067617 0.002400 0.000000 0.000000 -0.000000 
0.050156 -0.037047 0.001458 2.468500 9.972732 -2.298831 0.600872 0.013652 0.327353 -0.075254 0.186531 3.176497 -0.016789 0.003282 -0.009532 -0.005744 0.019625 -0.022027 0.014575 0.023476 -0.030578 0.000288 -0.010688 0.000332 -5.943429 -15.126206 -75.394207 -0.234647 -4.067272 -5.959077 -0.110848 0.045640 0.125738 -0.000079 -0.000007 0.000023 0.000007 0.000022 0.000006 0.000006 -0.000004 -0.000001 -0.000005 -0.000003 0.000001 -0.000006 0.000003 -0.000055 -0.000005 0.000004 -0.000000 -0.000011 -0.000005 0.000032 0.000012 0.000003 -0.000028 -0.000022 0.000006 -0.000007 -0.000016 -0.000005 0.000026 0.000018 0.000007 -0.000054 0.000000 0.000001 -0.000001 -0.000044 0.000008 0.000007 -0.000008 0.000001 -0.000001 0.000006 -0.000003 -0.000002 -0.000462 0.022192 -0.009558 -1.952784 -11.108220 76.787116 -0.503399 4.841548 7.158080 -0.061172 -0.093704 -0.017270 0.000004 0.000031 0.000001 -0.000026 -0.000006 0.000005 -0.000033 -0.000006 0.000004 0.000009 0.000001 0.000026 0.000026 0.000003 -0.000012 -0.000009 -0.000003 -0.000000 -0.000008 -0.000002 0.000025 -0.000033 0.000008 -0.000055 0.000014 -0.000000 0.000026 0.000002 0.000002 0.000005 -0.000005 -0.000002 -0.000028 0.000001 0.000003 -0.000001 -0.000002 0.000033 0.000029 -0.000004 0.000006 -0.000006 -0.000003 0.000004 -0.000005 -20.936427 -0.856028 2.552179 16.969081 0.477384 4.909584 0.019323 0.038535 0.098804 0.000000 -0.000000 -0.000000 -6.804117 -0.211191 4.116776 5.656309 -0.078316 5.729747 -0.038949 0.077991 0.000768 0.000000 0.000000 -0.000000 
